HIERARCHY
ROOT Hips
{
  OFFSET 0 0.240689 0
  CHANNELS 6 Xposition Yposition Zposition Zrotation Xrotation Yrotation
  JOINT Bip01_Spine0
  {
    OFFSET 0 -24.7459 49.7988
    CHANNELS 6 Xposition Yposition Zposition Zrotation Xrotation Yrotation
    JOINT Bip01_Pelvis
    {
      OFFSET 0 0 0
      CHANNELS 6 Xposition Yposition Zposition Zrotation Xrotation Yrotation
      JOINT Bip01_Spine0_Tail
      {
        OFFSET -6.47486 -3.86022 0
        CHANNELS 6 Xposition Yposition Zposition Zrotation Xrotation Yrotation
        JOINT Bip01_Spine0_Tail1
        {
          OFFSET 10.3837 -0.00825882 0
          CHANNELS 6 Xposition Yposition Zposition Zrotation Xrotation Yrotation
          JOINT Bip01_Spine0_Tail2
          {
            OFFSET 10.3837 -0.00826263 0
            CHANNELS 6 Xposition Yposition Zposition Zrotation Xrotation Yrotation
            JOINT Bip01_Spine0_Tail3
            {
              OFFSET 10.3837 -0.00825882 0
              CHANNELS 6 Xposition Yposition Zposition Zrotation Xrotation Yrotation
              JOINT Bip01_Spine0_Tail4
              {
                OFFSET 10.3837 -0.00826263 0
                CHANNELS 6 Xposition Yposition Zposition Zrotation Xrotation Yrotation
                End Site
                {
                  OFFSET 0 0 0
                }
              }
            }
          }
        }
      }
      JOINT Bip01_R_Thigh
      {
        OFFSET 0 -1.52588e-005 -8.75617
        CHANNELS 6 Xposition Yposition Zposition Zrotation Xrotation Yrotation
        JOINT Bip01_R_Calf
        {
          OFFSET 19.7638 0 0
          CHANNELS 6 Xposition Yposition Zposition Zrotation Xrotation Yrotation
          JOINT Bip01_R_Foot
          {
            OFFSET 18.6534 0 0
            CHANNELS 6 Xposition Yposition Zposition Zrotation Xrotation Yrotation
            JOINT Bip01_R_Toe0
            {
              OFFSET 5.09145 13.9567 0
              CHANNELS 6 Xposition Yposition Zposition Zrotation Xrotation Yrotation
              JOINT Bip01_R_Toe01
              {
                OFFSET 4.28803 0 0
                CHANNELS 6 Xposition Yposition Zposition Zrotation Xrotation Yrotation
                JOINT Bip01_R_Toe02
                {
                  OFFSET 3.85801 0 0
                  CHANNELS 6 Xposition Yposition Zposition Zrotation Xrotation Yrotation
                  End Site
                  {
                    OFFSET 0 0 0
                  }
                }
              }
            }
          }
        }
      }
      JOINT Bip01_L_Thigh
      {
        OFFSET 0 1.52588e-005 8.75617
        CHANNELS 6 Xposition Yposition Zposition Zrotation Xrotation Yrotation
        JOINT Bip01_L_Calf
        {
          OFFSET 19.7638 0 0
          CHANNELS 6 Xposition Yposition Zposition Zrotation Xrotation Yrotation
          JOINT Bip01_L_Foot
          {
            OFFSET 18.6534 0 0
            CHANNELS 6 Xposition Yposition Zposition Zrotation Xrotation Yrotation
            JOINT Bip01_L_Toe0
            {
              OFFSET 5.09144 13.9567 0
              CHANNELS 6 Xposition Yposition Zposition Zrotation Xrotation Yrotation
              JOINT Bip01_L_Toe01
              {
                OFFSET 4.28802 0 0
                CHANNELS 6 Xposition Yposition Zposition Zrotation Xrotation Yrotation
                JOINT Bip01_L_Toe02
                {
                  OFFSET 3.85801 0 0
                  CHANNELS 6 Xposition Yposition Zposition Zrotation Xrotation Yrotation
                  End Site
                  {
                    OFFSET 0 0 0
                  }
                }
              }
            }
          }
        }
      }
      JOINT Bip01_Spine
      {
        OFFSET 9.14835 -0.00640869 -1.1e-005
        CHANNELS 6 Xposition Yposition Zposition Zrotation Xrotation Yrotation
        JOINT Bip01_Spine1
        {
          OFFSET 8.04366 -0.00638199 0
          CHANNELS 6 Xposition Yposition Zposition Zrotation Xrotation Yrotation
          JOINT Bip01_Spine2
          {
            OFFSET 8.04367 -0.00639343 0
            CHANNELS 6 Xposition Yposition Zposition Zrotation Xrotation Yrotation
            JOINT Bip01_Spine3
            {
              OFFSET 8.04304 -0.00831222 0
              CHANNELS 6 Xposition Yposition Zposition Zrotation Xrotation Yrotation
              JOINT Bip01_Neck
              {
                OFFSET 10.6685 1.06813 0
                CHANNELS 6 Xposition Yposition Zposition Zrotation Xrotation Yrotation
                JOINT Bip01_R_Clavicle
                {
                  OFFSET -3.21661 -4.89635 -9.04802
                  CHANNELS 6 Xposition Yposition Zposition Zrotation Xrotation Yrotation
                  JOINT Bip01_R_UpperArm
                  {
                    OFFSET 19.0492 0 0
                    CHANNELS 6 Xposition Yposition Zposition Zrotation Xrotation Yrotation
                    JOINT Bip01_R_Forearm
                    {
                      OFFSET 10.3706 0 0
                      CHANNELS 6 Xposition Yposition Zposition Zrotation Xrotation Yrotation
                      JOINT Bip01_R_Hand
                      {
                        OFFSET 22.8632 0 0
                        CHANNELS 6 Xposition Yposition Zposition Zrotation Xrotation Yrotation
                        JOINT Bip01_R_Finger0
                        {
                          OFFSET 6.48259 0.103651 0.504496
                          CHANNELS 6 Xposition Yposition Zposition Zrotation Xrotation Yrotation
                          JOINT Bip01_R_Finger01
                          {
                            OFFSET 3.66847 0 0
                            CHANNELS 6 Xposition Yposition Zposition Zrotation Xrotation Yrotation
                            End Site
                            {
                              OFFSET 0 0 0
                            }
                          }
                        }
                      }
                    }
                  }
                }
                JOINT Bip01_L_Clavicle
                {
                  OFFSET -3.21661 -4.89641 9.04797
                  CHANNELS 6 Xposition Yposition Zposition Zrotation Xrotation Yrotation
                  JOINT Bip01_L_UpperArm
                  {
                    OFFSET 19.0492 0 0
                    CHANNELS 6 Xposition Yposition Zposition Zrotation Xrotation Yrotation
                    JOINT Bip01_L_Forearm
                    {
                      OFFSET 10.3706 0 0
                      CHANNELS 6 Xposition Yposition Zposition Zrotation Xrotation Yrotation
                      JOINT Bip01_L_Hand
                      {
                        OFFSET 22.8631 0 0
                        CHANNELS 6 Xposition Yposition Zposition Zrotation Xrotation Yrotation
                        JOINT Bip01_L_Finger0
                        {
                          OFFSET 6.48257 0.103655 -0.504492
                          CHANNELS 6 Xposition Yposition Zposition Zrotation Xrotation Yrotation
                          JOINT Bip01_L_Finger01
                          {
                            OFFSET 3.66844 0 0
                            CHANNELS 6 Xposition Yposition Zposition Zrotation Xrotation Yrotation
                            End Site
                            {
                              OFFSET 0 0 0
                            }
                          }
                        }
                      }
                    }
                  }
                }
                JOINT Bip01_Neck1
                {
                  OFFSET 7.52459 -0.00656509 0
                  CHANNELS 6 Xposition Yposition Zposition Zrotation Xrotation Yrotation
                  JOINT Bip01_Neck2
                  {
                    OFFSET 8.4783 -0.00588226 0
                    CHANNELS 6 Xposition Yposition Zposition Zrotation Xrotation Yrotation
                    JOINT Bip01_Head
                    {
                      OFFSET 8.41606 0 0
                      CHANNELS 6 Xposition Yposition Zposition Zrotation Xrotation Yrotation
                      JOINT EyesBlue
                      {
                        OFFSET 0 0 0
                        CHANNELS 6 Xposition Yposition Zposition Zrotation Xrotation Yrotation
                        JOINT EyesBlue_2
                        {
                          OFFSET 0 -0.500007 0
                          CHANNELS 6 Xposition Yposition Zposition Zrotation Xrotation Yrotation
                          End Site
                          {
                            OFFSET 0 0 0
                          }
                        }
                      }
                      JOINT Bip01_Head2_Eyeleds
                      {
                        OFFSET 6.52751 7.61746 2.2e-005
                        CHANNELS 6 Xposition Yposition Zposition Zrotation Xrotation Yrotation
                        End Site
                        {
                          OFFSET 0 0 0
                        }
                      }
                      JOINT Bip01_Head_Muzzle
                      {
                        OFFSET 2.88628 13.9448 3.88994
                        CHANNELS 6 Xposition Yposition Zposition Zrotation Xrotation Yrotation
                        End Site
                        {
                          OFFSET 0 0 0
                        }
                      }
                      JOINT Bip01_Head1_Jaw
                      {
                        OFFSET 0.271065 1.32405 0
                        CHANNELS 6 Xposition Yposition Zposition Zrotation Xrotation Yrotation
                        JOINT _Bip01_Head11_TungeControler
                        {
                          OFFSET 4.61616 5.82872 0
                          CHANNELS 6 Xposition Yposition Zposition Zrotation Xrotation Yrotation
                          JOINT _Bip01_Ponytail3_tunge
                          {
                            OFFSET 5.17785 2.98805 0
                            CHANNELS 6 Xposition Yposition Zposition Zrotation Xrotation Yrotation
                            JOINT Bip01_Ponytail31
                            {
                              OFFSET 5.57569 0 0
                              CHANNELS 6 Xposition Yposition Zposition Zrotation Xrotation Yrotation
                              JOINT Bip01_Ponytail32
                              {
                                OFFSET 2.93165 0 0
                                CHANNELS 6 Xposition Yposition Zposition Zrotation Xrotation Yrotation
                                JOINT Bip01_Ponytail3Nub
                                {
                                  OFFSET 3.30155 0 0
                                  CHANNELS 6 Xposition Yposition Zposition Zrotation Xrotation Yrotation
                                  End Site
                                  {
                                    OFFSET 0 0 0
                                  }
                                }
                              }
                            }
                          }
                        }
                        JOINT Bip01_Head_JawNub
                        {
                          OFFSET 15.5776 -0.000389099 0
                          CHANNELS 6 Xposition Yposition Zposition Zrotation Xrotation Yrotation
                          End Site
                          {
                            OFFSET 0 0 0
                          }
                        }
                      }
                      JOINT Bip01_Ponytail2
                      {
                        OFFSET 9.40334 1.03973 -6.51764
                        CHANNELS 6 Xposition Yposition Zposition Zrotation Xrotation Yrotation
                        JOINT Bip01_Ponytail21
                        {
                          OFFSET 2.77018 -0.00640106 1.33514e-005
                          CHANNELS 6 Xposition Yposition Zposition Zrotation Xrotation Yrotation
                          End Site
                          {
                            OFFSET 0 0 0
                          }
                        }
                      }
                      JOINT Bip01_Ponytail1
                      {
                        OFFSET 9.40368 1.03969 6.51768
                        CHANNELS 6 Xposition Yposition Zposition Zrotation Xrotation Yrotation
                        JOINT Bip01_Ponytail11
                        {
                          OFFSET 2.77018 -0.00640487 0
                          CHANNELS 6 Xposition Yposition Zposition Zrotation Xrotation Yrotation
                          End Site
                          {
                            OFFSET 0 0 0
                          }
                        }
                      }
                    }
                  }
                }
              }
            }
          }
        }
      }
    }
  }
}
MOTION
Frames:	4
Frame Time:	0.0333333
0 0.240689 -4e-006 -0 -90 -0 4.21358 -28.7019 47.1498 89.8066 -1.99088 84.4582 0 0 0 -86.7174 0.668737 -78.5192 -6.34414 -3.92958 -1.06338 133.27 -3.78624 10.8365 10.3787 -0.006904 7.00003e-005 -33.1711 -0.146088 -5.0442 10.3831 -0.008102 0.000461 -0.666482 -2.35104 -4.96862 10.3906 -0.003787 0.000495 61.95 -2.91884 -0.110965 10.3905 -0.004032 0.000570001 59.9311 -2.88928 -6.88932 9e-006 -1.09532e-005 -8.75617 -121.236 15.1929 -171.677 19.7638 -8.88178e-015 0 -81.1659 0.000276605 0.00352837 18.6534 3e-006 -2.77112e-013 -19.5294 3.93091 10.0281 5.09143 13.9567 -2.1367e-006 100.758 -1.05714 -4.88708 4.288 -3.55271e-015 0 68.7868 -3.05747e-005 1.43546e-005 3.85799 1.42108e-014 3.55271e-015 -41.0075 9.67568e-006 1.17871e-005 -1.3e-005 1.49532e-005 8.75617 -122.727 9.23422 -174.257 19.7638 -2e-006 1.16351e-013 -74.6815 0.0003552 0.00262196 18.6534 0 3.55271e-015 -11.7821 -2.30594 -5.28686 5.09144 13.9567 -9.79642e-007 100.039 -0.908684 4.91664 4.288 7.10543e-015 5.32907e-015 51.5 -2.6276e-006 4.64383e-006 3.85799 0 -3.55271e-015 -45 -5.20789e-006 -1.29889e-005 8.96486 0.100309 1.82117 2.67045 -2.4383 -6.66057 8.04389 -0.006275 -1.2001e-005 2.69154 0.672933 -11.8107 8.04371 -0.006282 -1.5e-005 1.13402 1.23085 -8.31631 8.04401 -0.008338 1.50004e-005 2.825 0.31454 -9.2709 10.669 1.06808 0.000228893 -7.43519 -0.608665 -3.6746 -4.27473 -4.44671 -8.84006 141.948 -85.0003 83.4345 19.0492 2e-006 -7e-006 113.565 -11.5414 -102.25 10.3706 -7e-006 1.40332e-012 -51.7376 0.000506882 0.001457 22.8631 -7.10543e-015 1e-006 -12.5433 16.1328 -7.8815 6.48256 0.103651 0.504495 -87.0286 2.11091 -15.3549 3.66843 -9.96314e-013 2e-006 40.107 3.1228e-005 -8.45393e-006 -3.11437 -4.63943 9.21746 -159.33 74.8008 -129.456 19.0492 1.52767e-013 1e-006 80.0197 6.33133 69.2801 10.3706 9.99999e-007 -1e-006 -117.783 -0.000287281 0.0012508 22.8631 -3e-006 -1e-006 20.2344 -21.2178 -13.2817 6.48256 0.103651 -0.504495 5.41438 15.4405 1.38679 3.66843 -1e-006 -1e-006 25.607 1.02622e-005 -4.09862e-007 7.52763 -0.006553 -0.000231001 12.7815 2.91017 1.85495 8.47716 -0.006332 0.000396001 18.3418 -2.33203 -12.8646 8.41604 -3e-006 5.18696e-013 -101.89 -2.62709 0.991693 -3e-006 3e-006 -5e-006 -23.1098 1.37701e-015 90 -9.45165e-006 -0.500002 -1.63991e-005 -123.825 90 -146.175 0 0 0 -113.549 -1.52588e-005 -180 2.8863 13.9448 3.88994 -22.989 1.3702e-015 90 0 0 0 -85.3358 -1.52588e-005 -180 0 0 0 -120.289 9.99726e-006 -2.85416e-005 0 0 0 133.74 -4.75519e-006 8.30014e-006 0 0 0 1.83152 -6.62644e-008 3.59589e-007 0 0 0 -17.65 -1.16708e-006 -3.38949e-006 0 0 0 -26.1943 -2.48765e-006 -4.18714e-006 15.5776 -0.0004 -5.99993e-006 -8.82781e-032 -1.59028e-015 -3.18055e-015 9.4038 1.03964 -6.51623 -5.81573 -20.044 20.1793 2.77015 -0.006069 0.002033 2.27058 -18.4985 -0.510767 9.40416 1.0396 6.51626 -5.81577 20.0469 -20.1769 2.77014 -0.006067 -0.002031 2.27095 18.5011 0.512929 
0 0.240689 -4e-006 90 -89.6388 90 4.21358 -28.7019 47.288 89.8066 -1.99088 84.4582 0 0 0 -87.3687 0.502227 -79.7107 -6.36798 -3.91349 -0.976172 133.286 -3.36145 9.34324 10.3787 -0.006904 7.00003e-005 -32.6568 -0.188943 -5.10594 10.3831 -0.008102 0.000461 -0.288348 -2.37899 -5.0562 10.3906 -0.003787 0.000495 56.9209 -2.92654 -0.509657 10.3905 -0.004032 0.000570001 58.9539 -2.79276 -7.15389 8.99998e-006 -1.09629e-005 -8.75617 -119.765 14.8879 -173.086 19.7638 7.10543e-015 -1.77636e-015 -79.6237 0.000324637 0.00352865 18.6534 3e-006 -2.61125e-013 -19.2216 1.31499 11.0896 5.09143 13.9567 -2.01213e-006 100.791 -0.984576 -4.06124 4.288 0 3.55271e-015 68.7868 -3.08519e-005 1.41448e-005 3.85799 2.75335e-014 0 -41.0075 9.43056e-006 1.20225e-005 -1.3e-005 1.49629e-005 8.75617 -123.359 8.82244 -175.969 19.7638 -2e-006 9.81437e-014 -74.2321 0.000375445 0.00261948 18.6534 -3.55271e-015 2.22045e-015 -12.6343 -3.8431 -3.31035 5.09144 13.9567 -9.69878e-007 100.159 -1.73958 5.23958 4.288 1.42109e-014 -3.55271e-015 51.5 -2.33311e-006 4.67855e-006 3.85799 -1.15463e-014 1.77636e-015 -45 -5.36776e-006 -1.31725e-005 9.0007 0.0741369 1.63411 2.80911 -2.17935 -5.50587 8.04389 -0.006275 -1.20009e-005 2.65543 0.52113 -11.8266 8.04371 -0.006282 -1.49999e-005 1.10751 1.07698 -8.33178 8.04401 -0.008338 1.50004e-005 2.79527 0.161046 -9.28662 10.669 1.06808 0.000228896 -6.89418 -0.633502 -3.92923 -4.3567 -4.40762 -8.81948 137.384 -84.9755 76.3975 19.0492 2e-006 -7e-006 114.115 -9.67604 -102.257 10.3706 -7e-006 1.41043e-012 -54.5584 0.000463743 0.00145888 22.8631 1.24345e-014 1e-006 -10.4523 18.6599 -9.56725 6.48256 0.103651 0.504495 -88.2399 2.44259 -15.3067 3.66843 -2.51132e-013 2e-006 40.107 1.45857e-005 4.94406e-006 -3.11632 -4.60803 9.23267 -158.96 74.7226 -130.392 19.0492 1.52767e-013 1e-006 83.1593 6.26786 72.0685 10.3706 9.99999e-007 -1e-006 -118.5 -0.000299818 0.00124377 22.8631 -3e-006 -1e-006 16.3061 -19.3503 -10.5081 6.48255 0.103651 -0.504495 -11.3497 14.4251 5.73583 3.66843 -1e-006 -1e-006 28.0474 7.56972e-006 7.52906e-007 7.52763 -0.006553 -0.000231001 12.8253 2.91158 1.85273 8.47716 -0.006332 0.000396001 17.1978 -2.07074 -12.9094 8.41604 -3e-006 5.15144e-013 -101.418 -0.514121 0.35481 -3e-006 3e-006 -5e-006 -23.1098 1.37701e-015 90 -9.45493e-006 -0.500002 -1.64005e-005 -124.257 90 -145.743 0 0 0 -113.549 -1.52588e-005 -180 2.8863 13.9448 3.88994 -22.989 1.3702e-015 90 0 0 0 -85.3358 -1.52588e-005 -180 0 0 0 -120.289 8.50308e-006 -2.75295e-005 0 0 0 133.74 -6.68742e-006 7.64773e-006 0 0 0 1.83152 -4.0411e-008 3.17788e-007 0 0 0 -17.65 -1.07031e-006 -3.00098e-006 0 0 0 -26.1943 -2.27381e-006 -3.69086e-006 15.5776 -0.0004 -5.99994e-006 4.77083e-015 -1.59028e-015 3.18055e-015 9.4038 1.03964 -6.51623 -5.81533 -20.0434 20.1079 2.77015 -0.006069 0.002033 2.2715 -18.5017 -0.58102 9.40416 1.0396 6.51626 -5.81472 20.0462 -20.1063 2.77014 -0.006067 -0.002031 2.27078 18.5043 0.583197 
0 0.240689 -4e-006 90 -88.5917 90 4.21358 -28.7019 47.4377 89.8066 -1.99088 84.4582 0 0 0 -88.1331 0.332374 -80.9788 -6.39117 -3.8966 -0.887615 133.404 -2.95752 7.72454 10.3787 -0.006904 7.00003e-005 -32.1534 -0.22742 -5.21349 10.3831 -0.008102 0.000461 0.0806108 -2.40452 -5.21798 10.3906 -0.003787 0.000495 51.708 -2.91286 -1.02206 10.3905 -0.004032 0.00057 57.9972 -2.71029 -7.57274 8.99998e-006 -1.09754e-005 -8.75617 -118.563 14.3975 -174.308 19.7638 1.77636e-015 -1.77636e-015 -78.3676 0.000364039 0.00352886 18.6534 3e-006 -2.38032e-013 -18.8427 -1.06238 11.9937 5.09143 13.9567 -1.90276e-006 100.884 -0.265085 -1.14227 4.288 7.10543e-015 -7.10543e-015 68.7868 -3.2929e-005 1.39359e-005 3.85799 -1.33227e-014 1.77636e-015 -41.0075 9.89858e-006 1.34385e-005 -1.3e-005 1.49754e-005 8.75617 -123.863 8.2745 -177.629 19.7638 -2e-006 8.92619e-014 -73.5835 0.000404796 0.00261548 18.6534 0 5.77316e-015 -13.5618 -5.35533 -1.3658 5.09144 13.9567 -9.491e-007 100.453 -3.65918 5.9937 4.288 0 -2.66454e-015 51.5 -8.89182e-007 4.73244e-006 3.85799 -1.77636e-015 2.66454e-015 -45 -6.24178e-006 -1.41796e-005 9.03451 0.0474435 1.43449 2.98085 -1.84351 -4.30036 8.04389 -0.006275 -1.20009e-005 2.61342 0.357786 -11.8576 8.04371 -0.006282 -1.49999e-005 1.07492 0.911193 -8.36258 8.04401 -0.008338 1.50003e-005 2.7605 -0.00431234 -9.31794 10.669 1.06808 0.000228905 -6.29717 -0.660978 -4.17413 -4.44107 -4.36406 -8.79898 131.475 -85.0231 68.009 19.0492 2e-006 -7e-006 115.247 -6.79619 -102.391 10.3706 -7e-006 1.34115e-012 -56.2489 0.000438681 0.00146012 22.8631 1.77636e-014 1e-006 -8.61146 21.3037 -11.5071 6.48256 0.103651 0.504495 -90.3326 3.01202 -15.2071 3.66843 -6.30606e-014 2e-006 40.107 9.38804e-006 8.55278e-006 -3.12369 -4.57298 9.24756 -158.69 74.6397 -131.312 19.0492 1.52767e-013 1e-006 85.825 6.05433 74.9528 10.3706 9.99999e-007 -1e-006 -117.712 -0.000286628 0.00125658 22.8631 -3e-006 -1e-006 11.773 -17.4402 -8.0292 6.48256 0.103651 -0.504495 -27.7483 12.2696 9.54683 3.66843 -1e-006 -1e-006 30.4404 3.57484e-006 4.01271e-006 7.52763 -0.006553 -0.000231001 12.9105 2.91433 1.8484 8.47716 -0.006332 0.000396001 15.9932 -1.79405 -12.949 8.41604 -3e-006 4.68958e-013 -101.068 1.63052 -0.276426 -3e-006 3e-006 -5e-006 -23.1098 1.37701e-015 90 -9.45851e-006 -0.500002 -1.64027e-005 -124.903 90 -145.097 0 0 0 -113.549 -1.52588e-005 -180 2.8863 13.9448 3.88994 -22.989 1.3702e-015 90 0 0 0 -85.3358 -1.52588e-005 -180 0 0 0 -120.289 6.91056e-006 -2.64268e-005 0 0 0 133.74 -8.75439e-006 6.96251e-006 0 0 0 1.83152 -1.64317e-008 2.72684e-007 0 0 0 -17.65 -9.77567e-007 -2.58057e-006 0 0 0 -26.1943 -2.05398e-006 -3.14856e-006 15.5776 -0.0004 -5.99995e-006 -1.59028e-015 0 -6.36111e-015 9.4038 1.03964 -6.51623 -5.81528 -20.0441 19.9942 2.77015 -0.006069 0.002033 2.27173 -18.5068 -0.694492 9.40416 1.0396 6.51626 -5.81438 20.0462 -19.9925 2.77014 -0.006067 -0.002031 2.27083 18.5094 0.696485 
0 0.240689 -4e-006 90 -86.9136 90 4.21358 -28.7019 47.5944 89.8066 -1.99088 84.4582 0 0 0 -88.9556 0.170313 -82.3051 -6.41331 -3.87992 -0.795798 133.502 -2.55973 6.02177 10.3787 -0.006904 7.00002e-005 -31.6421 -0.268548 -5.30873 10.3831 -0.008102 0.000461 0.456059 -2.43232 -5.3602 10.3906 -0.003787 0.000495 46.4938 -2.8532 -1.50336 10.3905 -0.004032 0.00057 57.0261 -2.61629 -7.95053 8.99999e-006 -1.09897e-005 -8.75617 -116.632 13.8227 -175.594 19.7638 -7.10543e-015 1.77636e-015 -75.9753 0.00043956 0.00352892 18.6534 3e-006 -2.16716e-013 -18.8245 -3.62416 13.197 5.09143 13.9567 -1.78954e-006 100.911 0.217489 1.02931 4.288 0 3.55271e-015 68.7868 -3.53167e-005 1.36558e-005 3.85799 -5.32907e-015 -1.77636e-015 -41.0075 9.88812e-006 1.50766e-005 -1.3e-005 1.49897e-005 8.75617 -124.253 7.6837 -179.282 19.7638 -2e-006 7.01106e-014 -72.7512 0.0004425 0.00260978 18.6534 0 3.94129e-015 -14.5532 -6.83887 0.562162 5.09144 13.9567 -9.18454e-007 100.925 -6.43036 7.10769 4.288 -1.06581e-014 8.88178e-016 51.5 4.33458e-007 4.76855e-006 3.85799 1.06581e-014 -2.66454e-015 -45 -7.04019e-006 -1.50909e-005 9.06525 0.0219668 1.22493 3.16768 -1.46748 -3.04985 8.04389 -0.006275 -1.20012e-005 2.56803 0.186341 -11.8939 8.04371 -0.006282 -1.49999e-005 1.04021 0.737035 -8.39842 8.04401 -0.008338 1.50003e-005 2.72242 -0.177505 -9.35474 10.669 1.06808 0.000228917 -5.6678 -0.6911 -4.42192 -4.52794 -4.31737 -8.7777 125.886 -84.9961 59.958 19.0492 2e-006 -7e-006 116.406 -3.695 -102.64 10.3706 -7e-006 1.22924e-012 -57.571 0.000419613 0.00146124 22.8631 -7.10543e-015 1e-006 -6.5097 23.8633 -13.5642 6.48256 0.103651 0.504495 -92.2065 3.51883 -15.1004 3.66843 2.4869e-014 2e-006 40.107 6.13848e-006 1.00704e-005 -3.13258 -4.53585 9.26283 -158.425 74.5711 -132.213 19.0492 1.24345e-013 1e-006 86.5368 5.07998 78.5277 10.3706 9.99999e-007 -1e-006 -110.932 -0.000218854 0.00126617 22.8631 -3e-006 -1e-006 4.89712 -14.4648 -6.88751 6.48256 0.103651 -0.504495 -43.7179 9.1871 12.5394 3.66843 -1e-006 -1e-006 32.857 5.86514e-008 8.69296e-006 7.52763 -0.006553 -0.000231 13.0115 2.91758 1.84326 8.47716 -0.006332 0.000396001 14.7389 -1.50523 -12.9848 8.41604 -3e-006 4.26326e-013 -100.745 3.83538 -0.93937 -3e-006 3e-006 -5e-006 -23.1098 1.37701e-015 90 -9.46246e-006 -0.500002 -1.64061e-005 -145.324 90 -124.676 0 0 0 -113.549 -1.52588e-005 -180 2.8863 13.9448 3.88994 -22.989 1.3702e-015 90 0 0 0 -85.3358 -1.52588e-005 -180 0 0 0 -120.289 5.34429e-006 -2.53117e-005 0 0 0 133.74 -1.07953e-005 6.30147e-006 0 0 0 1.83152 4.31311e-009 2.27673e-007 0 0 0 -17.65 -9.03163e-007 -2.16008e-006 0 0 0 -26.1943 -1.85648e-006 -2.59805e-006 15.5776 -0.0004 -5.99996e-006 -1.59028e-015 3.18055e-015 -9.54166e-015 9.4038 1.03964 -6.51623 -5.81495 -20.044 19.8826 2.77015 -0.006069 0.002033 2.27147 -18.512 -0.80615 9.40416 1.0396 6.51626 -5.81504 20.0462 -19.8805 2.77014 -0.006067 -0.002031 2.27085 18.5146 0.807878 
